<svg id="Layer_1" enable-background="new 0 0 256 256" height="512" viewBox="0 0 256 256" width="512" xmlns="http://www.w3.org/2000/svg"><g><path d="m140.114 128.193h-6.287c-3.207 0-5.807 2.6-5.807 5.807v26.574c0 4.572-5.04 7.353-8.901 4.903-3.771-2.394-8.331-3.657-13.207-3.313-10.845.765-19.629 9.744-20.177 20.602-.632 12.535 9.346 22.913 21.757 22.913 4.274 0 8.255-1.235 11.614-3.365 3.869-2.453 8.915.147 8.915 4.728v26.744c0 3.207 2.6 5.807 5.807 5.807h99.786c3.207 0 5.807-2.6 5.807-5.807v-99.785c0-3.207-2.6-5.807-5.807-5.807h-26.641c-4.59 0-7.207-5.045-4.77-8.934 2.092-3.338 3.303-7.284 3.303-11.516 0-12.835-11.109-23.092-24.251-21.65-9.768 1.072-17.759 8.816-19.105 18.55-.75 5.43.507 10.533 3.134 14.687 2.432 3.847-.377 8.862-4.928 8.862h-7.717z" fill="#d5de58"/><path d="m233.612 241.092h-99.786c-4.029 0-7.307-3.278-7.307-7.307v-26.745c0-1.565-.776-2.89-2.13-3.634-1.411-.776-3.085-.712-4.48.173-3.712 2.354-8.006 3.598-12.418 3.598-6.441 0-12.435-2.572-16.876-7.242-4.438-4.669-6.704-10.793-6.379-17.246.582-11.537 10.057-21.21 21.57-22.022 5.027-.355 9.907.871 14.116 3.543 1.341.852 2.974.902 4.365.137 1.397-.768 2.231-2.179 2.231-3.773v-26.574c0-4.029 3.277-7.307 7.307-7.307h6.288c.828 0 1.5.671 1.5 1.5s-.672 1.5-1.5 1.5h-6.288c-2.375 0-4.307 1.932-4.307 4.307v26.574c0 2.706-1.415 5.099-3.786 6.402-2.365 1.3-5.141 1.212-7.418-.233-3.665-2.327-7.918-3.392-12.298-3.084-10.026.707-18.278 9.133-18.785 19.181-.283 5.624 1.69 10.961 5.558 15.028 3.868 4.068 9.09 6.309 14.701 6.309 3.842 0 7.58-1.083 10.811-3.131 2.299-1.458 5.186-1.56 7.533-.268 2.308 1.269 3.685 3.61 3.685 6.263v26.744c0 2.375 1.932 4.307 4.307 4.307h99.786c2.375 0 4.307-1.932 4.307-4.307v-99.785c0-2.375-1.932-4.307-4.307-4.307h-26.641c-2.656 0-5.003-1.377-6.279-3.684-1.3-2.348-1.208-5.24.239-7.547 2.011-3.208 3.073-6.915 3.073-10.719 0-5.757-2.461-11.265-6.753-15.111-4.35-3.899-9.973-5.69-15.834-5.047-9.06.994-16.538 8.255-17.783 17.265-.673 4.868.335 9.598 2.915 13.68 1.432 2.263 1.512 5.019.216 7.372-1.308 2.374-3.705 3.791-6.412 3.791h-7.717c-.828 0-1.5-.671-1.5-1.5s.672-1.5 1.5-1.5h7.717c1.598 0 3.013-.837 3.784-2.239.761-1.38.715-2.996-.123-4.321-2.964-4.688-4.123-10.115-3.353-15.693 1.432-10.352 10.023-18.694 20.428-19.837 6.722-.739 13.172 1.32 18.164 5.795 4.926 4.415 7.751 10.737 7.751 17.345 0 4.368-1.222 8.625-3.531 12.312-.881 1.404-.939 3.087-.156 4.501.751 1.357 2.083 2.136 3.654 2.136h26.641c4.029 0 7.307 3.278 7.307 7.307v99.785c0 4.03-3.277 7.308-7.307 7.308z" fill="#3a312a"/><path d="m16.581 183.898v47.631c0 4.453 3.61 8.062 8.062 8.062h95.275c4.453 0 8.062-3.609 8.062-8.062v-25.191c-.476-4.127-5.198-6.349-8.875-4.022-3.36 2.13-7.341 3.36-11.613 3.36-12.407 0-22.394-10.383-21.759-22.909.555-10.859 9.338-19.841 20.185-20.608 4.868-.344 9.431.926 13.201 3.32 3.664 2.315 8.386-.053 8.862-4.206v-25.019c0-4.452-3.609-8.062-8.062-8.062h-20.489c-5.798 0-9.858-6.008-7.4-11.258 1.306-2.791 2.036-5.904 2.036-9.191 0-12.835-11.108-23.092-24.251-21.649-9.025.991-17.862 9.556-19.105 18.55-.6 4.338.083 8.468 1.721 12.072 2.442 5.374-1.392 11.477-7.294 11.477h-20.494c-4.452 0-8.062 3.609-8.062 8.062v34.681z" fill="#ed6e7a"/><path d="m119.918 241.092h-95.275c-5.272 0-9.561-4.29-9.561-9.562v-47.631c0-.829.672-1.5 1.5-1.5s1.5.671 1.5 1.5v47.631c0 3.619 2.943 6.562 6.561 6.562h95.275c3.618 0 6.562-2.944 6.562-6.562v-25.098c-.186-1.381-1.021-2.52-2.304-3.133-1.363-.651-2.959-.545-4.27.286-3.706 2.35-8 3.592-12.416 3.592-6.442 0-12.438-2.574-16.881-7.248-4.438-4.669-6.703-10.79-6.376-17.237.591-11.539 10.068-21.214 21.577-22.028 5.013-.358 9.896.873 14.11 3.55 1.278.808 2.792.899 4.152.247 1.321-.633 2.216-1.855 2.406-3.279v-24.927c0-3.618-2.944-6.562-6.562-6.562h-20.485c-3.314 0-6.361-1.678-8.149-4.49-1.724-2.709-1.952-6.038-.61-8.904 1.257-2.686 1.895-5.564 1.895-8.555 0-5.757-2.462-11.265-6.753-15.111-4.35-3.898-9.973-5.69-15.833-5.046-8.329.914-16.639 8.981-17.783 17.264-.536 3.874.018 7.763 1.601 11.245 1.371 3.019 1.126 6.473-.657 9.241-1.757 2.728-4.749 4.357-8.003 4.357h-20.496c-3.618 0-6.561 2.944-6.561 6.562v34.681c0 .829-.672 1.5-1.5 1.5s-1.5-.671-1.5-1.5v-34.681c0-5.272 4.289-9.562 9.561-9.562h20.494c2.263 0 4.261-1.086 5.481-2.981 1.228-1.907 1.396-4.289.448-6.374-1.818-4-2.456-8.459-1.843-12.898 1.339-9.684 10.693-18.767 20.428-19.836 6.715-.736 13.17 1.32 18.163 5.795 4.926 4.415 7.751 10.737 7.751 17.345 0 3.434-.732 6.74-2.178 9.827-.917 1.961-.763 4.156.425 6.022 1.234 1.941 3.335 3.1 5.618 3.1h20.487c5.272 0 9.562 4.29 9.562 9.562v25.019c0 .057-.003.114-.01.171-.286 2.49-1.819 4.629-4.102 5.722-2.274 1.09-4.913.933-7.053-.418-3.672-2.332-7.927-3.4-12.294-3.092-10.023.709-18.277 9.138-18.792 19.188-.284 5.617 1.688 10.95 5.555 15.018 3.871 4.072 9.094 6.315 14.706 6.315 3.847 0 7.585-1.081 10.81-3.127 2.19-1.386 4.871-1.557 7.169-.458 2.225 1.063 3.721 3.147 4.001 5.575.007.057.01.114.01.172v25.191c.001 5.27-4.289 9.56-9.561 9.56z" fill="#3a312a"/><path d="m47.492 26.085s3.408 12.659 13.222 13.246c0 0-13.1 4.525-13.321 14.202 0 0-2.579-13.572-12.925-14.059 0 .001 12.051-1.825 13.024-13.389z" fill="#d5de58"/><path d="m47.392 55.033c-.713 0-1.335-.506-1.473-1.217-.023-.124-2.494-12.418-11.521-12.843-.771-.037-1.388-.651-1.428-1.421-.04-.771.511-1.445 1.273-1.561.441-.069 10.895-1.817 11.754-12.033.062-.725.635-1.301 1.359-1.367.728-.059 1.394.399 1.584 1.102.031.116 3.259 11.626 11.863 12.141.714.043 1.297.584 1.396 1.292.098.708-.318 1.388-.994 1.623-.121.042-12.118 4.311-12.312 12.819-.018.767-.611 1.396-1.375 1.459-.042.005-.084.006-.126.006zm-7.742-15.729c3.878 1.969 6.231 5.746 7.587 8.876 2.026-4.021 5.942-6.787 8.949-8.427-4.134-1.842-6.783-5.651-8.334-8.722-1.792 4.36-5.271 6.868-8.202 8.273z" fill="#3a312a"/><path d="m25.794 43.066s2.411 8.954 9.352 9.369c0 0-9.266 3.201-9.422 10.045 0 0-1.824-9.6-9.142-9.944-.001 0 8.523-1.291 9.212-9.47z" fill="#d5de58"/><path d="m25.723 63.98c-.714 0-1.337-.507-1.473-1.22-.016-.082-1.704-8.442-7.739-8.726-.771-.037-1.388-.651-1.428-1.421-.04-.771.511-1.445 1.273-1.561.296-.047 7.363-1.243 7.942-8.113.062-.726.636-1.303 1.361-1.368.716-.062 1.392.399 1.582 1.102.021.079 2.227 7.919 7.993 8.264.714.043 1.299.584 1.396 1.293s-.32 1.388-.996 1.622c-.081.028-8.282 2.953-8.412 8.662-.017.767-.611 1.398-1.376 1.461-.04.004-.082.005-.123.005zm-4.52-11.527c2.107 1.333 3.524 3.394 4.447 5.28 1.376-2.232 3.515-3.872 5.365-4.973-2.287-1.269-3.885-3.35-4.941-5.224-1.174 2.287-3.015 3.876-4.871 4.917z" fill="#3a312a"/><path d="m25.794 16.408s2.411 8.954 9.352 9.37c0 0-9.266 3.201-9.422 10.045 0 0-1.824-9.6-9.142-9.944-.001 0 8.523-1.292 9.212-9.471z" fill="#d5de58"/><path d="m25.723 37.323c-.714 0-1.337-.507-1.473-1.22-.016-.082-1.704-8.442-7.739-8.726-.771-.037-1.388-.651-1.428-1.421s.511-1.445 1.273-1.56c.296-.047 7.363-1.243 7.942-8.114.062-.726.636-1.303 1.361-1.368.716-.061 1.392.399 1.582 1.102.021.079 2.227 7.92 7.993 8.265.714.043 1.299.584 1.396 1.293s-.32 1.388-.996 1.622c-.081.028-8.282 2.952-8.412 8.662-.017.767-.611 1.398-1.376 1.461-.04.003-.082.004-.123.004zm-4.52-11.528c2.107 1.332 3.524 3.394 4.447 5.28 1.376-2.232 3.516-3.872 5.365-4.972-2.287-1.27-3.885-3.35-4.941-5.224-1.174 2.287-3.015 3.875-4.871 4.916z" fill="#3a312a"/><path d="m169.117 52.386h-1.778c-1.042-4.555-2.858-8.814-5.304-12.632l1.308-1.308c1.507-1.507 1.507-3.95 0-5.457l-6.948-6.948c-1.507-1.507-3.95-1.507-5.457 0l-1.357 1.357c-3.81-2.4-8.052-4.177-12.583-5.187v-1.944c0-2.131-1.728-3.859-3.859-3.859h-9.826c-2.131 0-3.859 1.728-3.859 3.859v1.944c-2.401.647-8.773 2.787-12.583 5.187l-1.357-1.357c-1.507-1.507-3.95-1.507-5.458 0l-6.948 6.948c-1.507 1.507-1.507 3.95 0 5.457l1.308 1.308c-2.446 3.818-4.262 8.077-5.304 12.632h-1.778c-2.131 0-3.859 1.728-3.859 3.859v9.826c0 2.131 1.728 3.859 3.859 3.859h1.685c1.002 4.611 2.796 8.926 5.233 12.795l-1.144 1.145c-1.507 1.507-1.507 3.95 0 5.457l6.948 6.948c1.507 1.507 3.951 1.507 5.458 0l1.095-1.095c3.877 2.484 8.21 4.317 12.844 5.35v1.519c0 2.131 1.728 3.859 3.859 3.859h9.826c2.131 0 3.859-1.728 3.859-3.859v-1.519c4.634-1.034 8.967-2.867 12.844-5.35l1.095 1.095c1.507 1.507 3.95 1.507 5.457 0l6.948-6.948c1.507-1.507 1.507-3.951 0-5.457l-1.145-1.145c2.438-3.869 4.232-8.184 5.234-12.795h1.685c2.131 0 3.859-1.728 3.859-3.859v-9.826c.002-2.131-1.726-3.859-3.857-3.859zm-40.891 28.834c-11.08 0-20.062-8.982-20.062-20.062s8.982-20.062 20.062-20.062 20.062 8.982 20.062 20.062-8.982 20.062-20.062 20.062z" fill="#8ac5dc"/><path d="m133.139 107.408h-9.826c-2.955 0-5.358-2.404-5.358-5.359v-.335c-3.922-.995-7.654-2.549-11.125-4.634l-.255.255c-2.09 2.09-5.488 2.09-7.578 0l-6.948-6.948c-2.089-2.09-2.089-5.49 0-7.579l.311-.311c-2.045-3.461-3.564-7.174-4.53-11.069h-.493c-2.955 0-5.359-2.404-5.359-5.359v-9.826c0-2.955 2.404-5.359 5.359-5.359h.6c.996-3.842 2.533-7.503 4.581-10.912l-.468-.467c-2.09-2.09-2.09-5.489 0-7.579l6.948-6.948c1.012-1.012 2.357-1.57 3.789-1.57s2.777.558 3.789 1.57l.533.533c3.574-2.013 8.341-3.667 10.847-4.43v-.817c0-2.955 2.403-5.359 5.358-5.359h9.826c2.955 0 5.359 2.404 5.359 5.359v.759c3.817.969 7.46 2.471 10.857 4.477l.522-.523c1.012-1.012 2.357-1.569 3.789-1.569s2.777.558 3.789 1.57l6.948 6.948c2.09 2.089 2.09 5.489 0 7.578l-.467.467c2.048 3.41 3.584 7.07 4.58 10.912h.601c2.955 0 5.358 2.404 5.358 5.359v9.826c0 2.955-2.403 5.359-5.358 5.359h-.494c-.966 3.895-2.485 7.608-4.53 11.069l.311.311c2.089 2.089 2.089 5.489 0 7.579l-6.948 6.948c-2.09 2.09-5.488 2.09-7.578 0l-.255-.255c-3.471 2.084-7.203 3.639-11.124 4.634v.335c-.002 2.956-2.406 5.36-5.361 5.36zm-26.529-13.728c.278 0 .56.078.809.237 3.801 2.436 7.96 4.168 12.361 5.15.687.153 1.174.761 1.174 1.464v1.519c0 1.301 1.058 2.359 2.358 2.359h9.826c1.301 0 2.359-1.058 2.359-2.359v-1.519c0-.703.487-1.311 1.174-1.464 4.401-.982 8.559-2.714 12.36-5.15.597-.38 1.374-.294 1.87.203l1.096 1.096c.92.919 2.416.919 3.336 0l6.948-6.948c.92-.92.92-2.416 0-3.336l-1.145-1.145c-.495-.496-.582-1.268-.209-1.86 2.392-3.796 4.087-7.939 5.037-12.314.149-.69.76-1.182 1.466-1.182h1.686c1.301 0 2.358-1.058 2.358-2.359v-9.826c0-1.301-1.058-2.359-2.358-2.359h-1.778c-.699 0-1.307-.483-1.462-1.166-.989-4.323-2.707-8.413-5.104-12.157-.381-.593-.296-1.371.202-1.87l1.308-1.308c.92-.92.92-2.416 0-3.336l-6.948-6.948c-.891-.892-2.445-.892-3.336 0l-1.357 1.357c-.494.495-1.268.582-1.86.208-3.735-2.354-7.809-4.033-12.108-4.993-.687-.153-1.174-.761-1.174-1.464v-1.944c0-1.301-1.059-2.359-2.359-2.359h-9.826c-1.301 0-2.358 1.058-2.358 2.359v1.944c0 .678-.455 1.272-1.109 1.448-2.409.649-8.553 2.727-12.174 5.008-.593.374-1.364.287-1.86-.208l-1.357-1.357c-.891-.893-2.445-.892-3.336 0l-6.948 6.948c-.92.92-.92 2.416 0 3.336l1.309 1.308c.498.498.583 1.277.202 1.87-2.398 3.744-4.116 7.834-5.105 12.157-.155.682-.763 1.166-1.462 1.166h-1.777c-1.301 0-2.359 1.058-2.359 2.359v9.826c0 1.301 1.059 2.359 2.359 2.359h1.685c.706 0 1.316.492 1.466 1.182.95 4.374 2.646 8.518 5.037 12.314.373.592.286 1.364-.209 1.86l-1.145 1.145c-.92.92-.92 2.416 0 3.336l6.948 6.948c.92.919 2.416.919 3.336 0l1.096-1.096c.285-.289.67-.439 1.057-.439zm21.616-10.96c-11.889 0-21.562-9.673-21.562-21.562s9.673-21.562 21.562-21.562c11.89 0 21.562 9.673 21.562 21.562s-9.673 21.562-21.562 21.562zm0-40.124c-10.234 0-18.562 8.327-18.562 18.562s8.327 18.562 18.562 18.562 18.562-8.327 18.562-18.562-8.327-18.562-18.562-18.562z" fill="#3a312a"/><path d="m105.412 239.588v-13.72c0-8.362-6.778-15.14-15.14-15.14h-10.003v-6.501c-2.767 1.918-5.63 3.05-8.407 3.05-2.665 0-5.477-1.143-8.232-3.084h-.17v6.535h-10.008c-8.362 0-15.14 6.778-15.14 15.14v13.72z" fill="#f7e3c7"/><path d="m105.412 241.088h-67.1c-.828 0-1.5-.671-1.5-1.5v-13.72c0-9.175 7.465-16.64 16.641-16.64h8.508v-5.035c0-.829.672-1.5 1.5-1.5h.17c.31 0 .611.096.863.273 2.648 1.865 5.127 2.811 7.369 2.811 2.349 0 4.89-.936 7.553-2.783.46-.318 1.056-.354 1.55-.096.495.259.805.771.805 1.329v5.001h8.503c9.175 0 16.64 7.464 16.64 16.64v13.72c-.002.829-.674 1.5-1.502 1.5zm-65.6-3h64.101v-12.22c0-7.521-6.119-13.64-13.64-13.64h-10.003c-.828 0-1.5-.671-1.5-1.5v-3.829c-2.36 1.248-4.675 1.878-6.907 1.878-2.203 0-4.517-.665-6.902-1.979v3.931c0 .829-.672 1.5-1.5 1.5h-10.009c-7.521 0-13.641 6.119-13.641 13.64v12.219z" fill="#3a312a"/><path d="m105.412 239.59v-13.728c0-8.359-6.776-15.14-15.141-15.14h-2.392l.061.049-10.404 13.795-5.37-4.042-5.369 4.042-10.404-13.795.061-.049h-3.001c-8.365 0-15.14 6.782-15.14 15.14v13.728z" fill="#d6df58"/><path d="m105.412 241.09h-67.1c-.828 0-1.5-.671-1.5-1.5v-13.728c0-9.175 7.465-16.64 16.641-16.64h3.001c.638 0 1.205.403 1.416 1.004.002.006.004.013.006.019l9.217 12.22 4.172-3.141c.535-.402 1.27-.402 1.805 0l4.173 3.141 9.296-12.327c.235-.542.745-.917 1.342-.917h2.393c9.176 0 16.641 7.465 16.641 16.64v13.728c-.003.83-.675 1.501-1.503 1.501zm-65.6-3h64.101v-12.228c0-7.521-6.119-13.64-13.641-13.64h-1.548l-9.99 13.247c-.498.662-1.438.793-2.1.295l-4.468-3.363-4.467 3.363c-.662.497-1.602.366-2.1-.295l-9.991-13.247h-2.156c-7.521 0-13.641 6.119-13.641 13.64v12.228z" fill="#3a312a"/><path d="m66.641 239.592-10.247-28.821.06-.05h-3.004c-8.363 0-15.139 6.781-15.139 15.144v13.727z" fill="#87796f"/><path d="m66.641 241.092h-28.329c-.828 0-1.5-.671-1.5-1.5v-13.727c0-9.178 7.465-16.644 16.64-16.644h3.003c.63 0 1.192.394 1.409.985.056.155.086.314.09.473l10.101 28.411c.163.459.094.969-.188 1.367s-.739.635-1.226.635zm-26.829-3h24.704l-9.197-25.871h-1.867c-7.521 0-13.64 6.121-13.64 13.644z" fill="#3a312a"/><path d="m105.411 225.865v13.727h-27.715l10.246-28.821-.065-.05h2.396c8.363 0 15.138 6.781 15.138 15.144z" fill="#87796f"/><path d="m105.411 241.092h-27.716c-.487 0-.944-.237-1.226-.635-.281-.398-.351-.908-.188-1.367l10.141-28.522c.011-.103.033-.205.066-.304.207-.608.745-1.042 1.388-1.042h2.396c9.175 0 16.639 7.466 16.639 16.644v13.727c0 .827-.672 1.499-1.5 1.499zm-25.591-3h24.091v-12.227c0-7.523-6.118-13.644-13.639-13.644h-1.254z" fill="#3a312a"/><circle clip-rule="evenodd" cx="45.865" cy="173.197" fill="#f7e3c7" fill-rule="evenodd" r="5.957"/><path d="m45.864 180.654c-4.112 0-7.457-3.345-7.457-7.457s3.345-7.458 7.457-7.458 7.458 3.345 7.458 7.458c0 4.112-3.345 7.457-7.458 7.457zm0-11.914c-2.458 0-4.457 2-4.457 4.458s1.999 4.457 4.457 4.457 4.458-1.999 4.458-4.457c0-2.459-2-4.458-4.458-4.458z" fill="#3a312a"/><path clip-rule="evenodd" d="m103.818 173.197c0 3.29-2.667 5.957-5.957 5.957s-5.957-2.667-5.957-5.957 2.667-5.957 5.957-5.957 5.957 2.667 5.957 5.957z" fill="#f7e3c7" fill-rule="evenodd"/><path d="m97.861 180.654c-4.112 0-7.458-3.345-7.458-7.457s3.346-7.458 7.458-7.458 7.457 3.345 7.457 7.458c0 4.112-3.344 7.457-7.457 7.457zm0-11.914c-2.458 0-4.458 2-4.458 4.458s2 4.457 4.458 4.457 4.457-1.999 4.457-4.457c0-2.459-1.999-4.458-4.457-4.458z" fill="#3a312a"/><path d="m98.531 167.962c-.12.045-.276.095-.346.191-.553-6.841-3.712-12.949-8.494-17.319-.954-.874-1.768-1.868-2.421-2.953 3.144-1.919 5.053-4.45 5.053-7.223 0-.819-.151-1.647-.437-2.466 4.716 4.701 7.614 11.075 7.614 18.097 0 .904.161 11.261-.969 11.673z" fill="#87796f"/><path d="m98.185 169.653c-.137 0-.274-.019-.409-.057-.603-.171-1.035-.698-1.086-1.322-.507-6.274-3.352-12.075-8.011-16.332-1.059-.969-1.964-2.075-2.694-3.287-.426-.707-.2-1.624.504-2.054 2.795-1.705 4.334-3.815 4.334-5.942 0-.639-.118-1.302-.353-1.972-.23-.66.025-1.392.617-1.764.592-.373 1.362-.286 1.857.207 5.195 5.178 8.056 11.982 8.056 19.16l.002.315c.086 11.915-.844 12.36-1.928 12.756-.257.189-.569.292-.889.292zm1.209-.612c-.001.001-.001.001-.001.001s0 0 .001-.001zm-10.032-20.762c.403.516.853 1.001 1.342 1.449 3.276 2.994 5.752 6.67 7.282 10.732.02-1.091.026-2.359.016-3.834l-.002-.337c0-4.962-1.544-9.728-4.41-13.771-.536 2.118-1.985 4.097-4.228 5.761z" fill="#3a312a"/><path d="m50.881 241.089c-.828 0-1.5-.671-1.5-1.5v-10.844c0-.829.672-1.5 1.5-1.5s1.5.671 1.5 1.5v10.844c0 .829-.672 1.5-1.5 1.5z" fill="#3a312a"/><path d="m93.455 241.089c-.828 0-1.5-.671-1.5-1.5v-10.844c0-.829.672-1.5 1.5-1.5s1.5.671 1.5 1.5v10.844c0 .829-.672 1.5-1.5 1.5z" fill="#3a312a"/><path d="m76.3 239.59h-8.285l1.564-10.142h5.156z" fill="#8ac3da"/><path d="m76.3 241.09h-8.285c-.438 0-.854-.191-1.139-.523s-.41-.772-.344-1.205l1.564-10.142c.112-.731.742-1.271 1.482-1.271h5.156c.74 0 1.37.54 1.482 1.271l1.564 10.142c.066.433-.059.873-.344 1.205-.283.332-.699.523-1.136.523zm-6.536-3h4.787l-1.102-7.142h-2.584z" fill="#3a312a"/><path d="m76.514 220.515-1.785 8.931h-5.146l-1.743-8.931z" fill="#8ac3da"/><path d="m74.729 230.946h-5.146c-.718 0-1.335-.508-1.473-1.212l-1.743-8.931c-.085-.44.03-.896.314-1.241.285-.346.71-.546 1.158-.546h8.674c.449 0 .875.202 1.16.549.285.348.399.804.311 1.245l-1.784 8.93c-.139.701-.756 1.206-1.471 1.206zm-3.911-3h2.682l1.185-5.931h-5.023z" fill="#3a312a"/><path d="m60.918 206.995h6.751v17.282h-6.751z" fill="#d6df58" transform="matrix(.799 -.602 .602 .799 -116.835 82.125)"/><path d="m66.798 226.068c-.069 0-.139-.005-.209-.015-.394-.055-.749-.265-.989-.582l-10.401-13.802c-.239-.318-.343-.718-.287-1.111.056-.394.265-.75.583-.989l5.392-4.063c.659-.5 1.602-.367 2.101.295l10.401 13.801c.498.662.366 1.602-.296 2.101l-5.392 4.063c-.262.197-.579.302-.903.302zm-8.301-15.006 8.596 11.406 2.996-2.258-8.596-11.406z" fill="#3a312a"/><path d="m76.666 206.995h6.751v17.282h-6.751z" fill="#d6df58" transform="matrix(-.799 -.602 .602 -.799 14.182 436.018)"/><path d="m77.537 226.068c-.324 0-.642-.105-.902-.302l-5.392-4.063c-.662-.499-.794-1.439-.296-2.101l10.401-13.801c.498-.662 1.439-.794 2.101-.295l5.392 4.063c.318.239.527.595.583.989s-.048.793-.287 1.111l-10.401 13.802c-.24.318-.596.527-.989.582-.071.011-.141.015-.21.015zm-3.291-5.858 2.996 2.258 8.596-11.406-2.996-2.258z" fill="#3a312a"/><path d="m98.27 170.307c0 14.581-14.044 36.973-26.405 36.973-11.804 0-26.41-22.392-26.41-36.973 0-.773.035-1.537.095-2.29.01-.111.02-.221.035-.331.095-.789.301-1.637.598-2.521 3.049-9.197 12.276-14.938 21.899-13.843 1.341.156 2.727.236 4.149.236 5.987 0 11.362-1.421 15.038-3.672.653 1.08 1.467 2.074 2.421 2.943 5.275 4.827 8.58 11.763 8.58 19.478z" fill="#f7e3c7"/><path d="m71.865 208.78c-12.94 0-27.91-23.282-27.91-38.473 0-.78.033-1.569.101-2.411.013-.15.026-.286.045-.422.101-.836.324-1.785.661-2.789 3.244-9.786 13.122-16.037 23.491-14.855 1.293.15 2.631.226 3.979.226 5.476 0 10.672-1.258 14.255-3.451.341-.208.75-.271 1.138-.178.388.094.723.339.929.681.586.968 1.309 1.846 2.148 2.611 5.765 5.275 9.069 12.778 9.069 20.587-.001 15.542-14.701 38.474-27.906 38.474zm-6.128-56.092c-8.139 0-15.556 5.183-18.13 12.948-.273.816-.452 1.564-.532 2.228-.016.115-.022.199-.03.283-.06.751-.09 1.461-.09 2.161 0 13.479 13.916 35.473 24.91 35.473 11.306 0 24.904-21.788 24.904-35.473 0-6.97-2.949-13.666-8.092-18.372-.69-.629-1.318-1.321-1.877-2.066-3.936 2.036-9.153 3.188-14.569 3.188-1.463 0-2.917-.083-4.321-.246-.727-.083-1.454-.124-2.173-.124z" fill="#3a312a"/><path d="m65.117 170.007c0 1.424-1.154 2.578-2.578 2.578s-2.578-1.154-2.578-2.578 1.154-2.578 2.578-2.578c1.424.001 2.578 1.155 2.578 2.578z" fill="#3a312a"/><path d="m83.764 170.007c0 1.424-1.154 2.578-2.578 2.578s-2.578-1.154-2.578-2.578 1.154-2.578 2.578-2.578c1.424.001 2.578 1.155 2.578 2.578z" fill="#3a312a"/><path d="m61.828 177.671c0 1.833-1.988 3.32-4.441 3.32-2.452 0-4.44-1.486-4.44-3.32 0-1.833 1.988-3.319 4.44-3.319 2.453-.001 4.441 1.485 4.441 3.319z" fill="#f59689"/><path d="m90.779 177.671c0 1.833-1.988 3.32-4.44 3.32s-4.44-1.486-4.44-3.32c0-1.833 1.988-3.319 4.44-3.319 2.452-.001 4.44 1.485 4.44 3.319z" fill="#f59689"/><g fill="#3a312a"><path d="m71.862 193.227c-4.036 0-6.947-1.816-8.652-5.397-.356-.748-.038-1.643.71-2 .749-.356 1.644-.038 1.999.71 1.197 2.516 3.086 3.687 5.943 3.687 3.343 0 5.355-2.134 5.893-3.568.289-.776 1.152-1.17 1.931-.879.775.29 1.169 1.155.878 1.931-.995 2.656-4.142 5.516-8.702 5.516z"/><path d="m60.335 180.855c-6.052 0-10.976-4.924-10.976-10.976s4.924-10.976 10.976-10.976 10.976 4.924 10.976 10.976-4.924 10.976-10.976 10.976zm0-18.952c-4.397 0-7.976 3.578-7.976 7.976s3.578 7.976 7.976 7.976c4.397 0 7.976-3.578 7.976-7.976 0-4.399-3.579-7.976-7.976-7.976z"/><path d="m83.998 180.855c-6.052 0-10.976-4.924-10.976-10.976s4.924-10.976 10.976-10.976 10.976 4.924 10.976 10.976-4.924 10.976-10.976 10.976zm0-18.952c-4.397 0-7.976 3.578-7.976 7.976s3.578 7.976 7.976 7.976c4.397 0 7.976-3.578 7.976-7.976 0-4.399-3.578-7.976-7.976-7.976z"/><path d="m74.522 171.359h-4.712c-.828 0-1.5-.671-1.5-1.5s.672-1.5 1.5-1.5h4.712c.828 0 1.5.671 1.5 1.5s-.671 1.5-1.5 1.5z"/><path d="m51.113 169.251c-.051 0-.102-.003-.152-.008l-5.47-.552c-.824-.083-1.425-.818-1.342-1.643s.831-1.426 1.643-1.342l5.47.552c.824.083 1.425.818 1.342 1.643-.079.773-.73 1.35-1.491 1.35z"/><path d="m93.227 169.251c-.749 0-1.396-.56-1.487-1.323-.099-.822.489-1.569 1.311-1.667l4.863-.579c.827-.1 1.569.489 1.667 1.312.099.822-.489 1.569-1.312 1.667l-4.863.579c-.06.008-.12.011-.179.011z"/></g><path d="m74.362 127.586c-8.932-.558-16.834 3.572-20.699 7.305-5.832 4.791-8.832 13.468-8.832 21.396 0 1.449.256 9.692.718 11.731.075-.881.299-1.843.635-2.855 3.047-9.194 12.276-14.938 21.899-13.841 1.338.153 2.725.233 4.147.233 11.095 0 20.09-4.878 20.09-10.896.001-6.018-8.218-12.465-17.958-13.073z" fill="#87796f"/><path d="m45.549 169.519c-.695 0-1.306-.481-1.462-1.168-.523-2.307-.756-11.009-.756-12.063 0-9.135 3.575-17.756 9.333-22.517 4.41-4.233 12.819-8.244 21.791-7.682 10.316.645 19.366 7.454 19.366 14.571 0 6.951-9.483 12.396-21.59 12.396-1.456 0-2.908-.082-4.317-.243-8.967-1.021-17.504 4.372-20.306 12.823-.312.941-.502 1.786-.564 2.511-.062.737-.653 1.318-1.391 1.369-.035.002-.07.003-.104.003zm27.193-40.484c-7.486 0-14.361 3.383-18.037 6.934-.028.028-.059.055-.09.081-5.032 4.134-8.284 12.078-8.284 20.237 0 .691.049 2.533.138 4.56 4.275-7.532 12.849-12.037 21.785-11.016 1.297.148 2.635.223 3.978.223 10.077 0 18.59-4.303 18.59-9.396 0-4.875-7.231-10.994-16.554-11.577-.511-.03-1.02-.046-1.526-.046z" fill="#3a312a"/><path d="m216.706 239.588v-13.72c0-8.362-6.778-15.14-15.14-15.14h-10.003v-6.501c-2.767 1.918-5.63 3.05-8.407 3.05-2.665 0-5.477-1.143-8.232-3.084h-.17v6.535h-10.009c-8.362 0-15.14 6.778-15.14 15.14v13.72z" fill="#f7e3c7"/><path d="m216.705 241.088h-67.1c-.828 0-1.5-.671-1.5-1.5v-13.72c0-9.175 7.465-16.64 16.64-16.64h8.509v-5.035c0-.829.672-1.5 1.5-1.5h.17c.31 0 .611.096.864.274 2.646 1.865 5.125 2.81 7.367 2.81 2.348 0 4.89-.936 7.554-2.783.459-.318 1.058-.355 1.551-.096.494.259.804.771.804 1.329v5.001h8.502c9.175 0 16.64 7.464 16.64 16.64v13.72c-.001.829-.673 1.5-1.501 1.5zm-65.6-3h64.1v-12.22c0-7.521-6.119-13.64-13.64-13.64h-10.002c-.828 0-1.5-.671-1.5-1.5v-3.829c-2.36 1.248-4.676 1.878-6.908 1.878-2.203 0-4.517-.665-6.901-1.979v3.93c0 .829-.672 1.5-1.5 1.5h-10.009c-7.521 0-13.64 6.119-13.64 13.64z" fill="#3a312a"/><path d="m216.706 239.59v-13.728c0-8.359-6.776-15.14-15.14-15.14h-2.393l.061.049-10.404 13.795-5.37-4.042-5.369 4.042-10.404-13.795.061-.049h-3.001c-8.365 0-15.141 6.782-15.141 15.14v13.728z" fill="#8ac3da"/><path d="m216.706 241.09h-67.101c-.828 0-1.5-.671-1.5-1.5v-13.728c0-9.175 7.465-16.64 16.641-16.64h3.001c.638 0 1.205.403 1.416 1.004.002.006.004.013.006.019l9.217 12.22 4.172-3.141c.535-.402 1.27-.402 1.805 0l4.173 3.141 9.296-12.327c.235-.542.745-.917 1.342-.917h2.393c9.176 0 16.641 7.465 16.641 16.64v13.728c-.002.83-.674 1.501-1.502 1.501zm-65.601-3h64.101v-12.228c0-7.521-6.119-13.64-13.641-13.64h-1.548l-9.99 13.247c-.499.662-1.438.793-2.1.295l-4.468-3.363-4.467 3.363c-.662.497-1.601.366-2.1-.295l-9.991-13.247h-2.156c-7.521 0-13.641 6.119-13.641 13.64v12.228z" fill="#3a312a"/><path d="m177.934 239.592-10.247-28.821.06-.05h-3.004c-8.363 0-15.139 6.781-15.139 15.144v13.727z" fill="#87796f"/><path d="m177.935 241.092h-28.329c-.828 0-1.5-.671-1.5-1.5v-13.727c0-9.178 7.464-16.644 16.639-16.644h3.004c.632 0 1.196.396 1.411.991.056.154.084.312.089.47l10.1 28.408c.163.459.094.969-.188 1.367s-.739.635-1.226.635zm-26.83-3h24.704l-9.198-25.871h-1.867c-7.52 0-13.639 6.121-13.639 13.644z" fill="#3a312a"/><path d="m216.705 225.865v13.727h-27.716l10.247-28.821-.065-.05h2.396c8.362 0 15.138 6.781 15.138 15.144z" fill="#87796f"/><path d="m216.705 241.092h-27.716c-.487 0-.944-.237-1.226-.635-.281-.398-.351-.908-.188-1.367l10.141-28.522c.011-.103.033-.205.066-.304.207-.608.745-1.042 1.388-1.042h2.396c9.175 0 16.639 7.466 16.639 16.644v13.727c0 .827-.672 1.499-1.5 1.499zm-25.591-3h24.091v-12.227c0-7.523-6.118-13.644-13.639-13.644h-1.254z" fill="#3a312a"/><path clip-rule="evenodd" d="m163.116 173.197c0 3.29-2.667 5.957-5.957 5.957s-5.957-2.667-5.957-5.957 2.667-5.957 5.957-5.957 5.957 2.667 5.957 5.957z" fill="#f7e3c7" fill-rule="evenodd"/><path d="m157.158 180.654c-4.112 0-7.457-3.345-7.457-7.457s3.345-7.458 7.457-7.458 7.457 3.345 7.457 7.458c0 4.112-3.345 7.457-7.457 7.457zm0-11.914c-2.458 0-4.457 2-4.457 4.458s1.999 4.457 4.457 4.457 4.457-1.999 4.457-4.457c0-2.459-1.999-4.458-4.457-4.458z" fill="#3a312a"/><path clip-rule="evenodd" d="m215.112 173.197c0 3.29-2.667 5.957-5.957 5.957s-5.957-2.667-5.957-5.957 2.667-5.957 5.957-5.957 5.957 2.667 5.957 5.957z" fill="#f7e3c7" fill-rule="evenodd"/><path d="m209.154 180.654c-4.112 0-7.457-3.345-7.457-7.457s3.345-7.458 7.457-7.458 7.458 3.345 7.458 7.458c0 4.112-3.345 7.457-7.458 7.457zm0-11.914c-2.458 0-4.457 2-4.457 4.458s1.999 4.457 4.457 4.457 4.458-1.999 4.458-4.457c0-2.459-2-4.458-4.458-4.458z" fill="#3a312a"/><path d="m162.174 241.089c-.828 0-1.5-.671-1.5-1.5v-10.844c0-.829.672-1.5 1.5-1.5s1.5.671 1.5 1.5v10.844c0 .829-.672 1.5-1.5 1.5z" fill="#3a312a"/><path d="m204.748 241.089c-.828 0-1.5-.671-1.5-1.5v-10.844c0-.829.672-1.5 1.5-1.5s1.5.671 1.5 1.5v10.844c0 .829-.672 1.5-1.5 1.5z" fill="#3a312a"/><path d="m187.594 239.59h-8.286l1.565-10.142h5.156z" fill="#ed6e7a"/><path d="m187.594 241.09h-8.286c-.438 0-.854-.191-1.139-.523s-.41-.773-.344-1.206l1.565-10.142c.113-.731.742-1.271 1.482-1.271h5.156c.74 0 1.37.54 1.482 1.271l1.564 10.142c.066.433-.059.873-.344 1.205-.283.333-.699.524-1.136.524zm-6.537-3h4.788l-1.102-7.142h-2.584z" fill="#3a312a"/><path d="m187.807 220.515-1.784 8.931h-5.146l-1.743-8.931z" fill="#ed6e7a"/><path d="m186.023 230.946h-5.146c-.718 0-1.335-.508-1.473-1.212l-1.743-8.931c-.085-.44.03-.896.314-1.241.285-.346.71-.546 1.158-.546h8.674c.449 0 .875.202 1.16.549.285.348.398.804.311 1.245l-1.784 8.931c-.139.7-.756 1.205-1.471 1.205zm-3.911-3h2.682l1.185-5.931h-5.023z" fill="#3a312a"/><path d="m172.211 206.995h6.751v17.282h-6.751z" fill="#8ac3da" transform="matrix(.799 -.602 .602 .799 -94.42 149.109)"/><path d="m178.092 226.068c-.069 0-.139-.005-.209-.015-.393-.055-.749-.265-.989-.582l-10.401-13.802c-.239-.318-.343-.718-.287-1.111.056-.394.265-.75.583-.989l5.392-4.063c.659-.5 1.602-.367 2.101.295l10.401 13.801c.498.662.366 1.602-.296 2.101l-5.392 4.063c-.262.197-.579.302-.903.302zm-8.301-15.006 8.596 11.406 2.996-2.258-8.596-11.406z" fill="#3a312a"/><path d="m187.96 206.995h6.751v17.282h-6.751z" fill="#8ac3da" transform="matrix(-.799 -.602 .602 -.799 214.353 503.001)"/><path d="m188.831 226.068c-.324 0-.642-.105-.902-.302l-5.392-4.063c-.662-.499-.794-1.439-.296-2.101l10.401-13.801c.498-.662 1.439-.794 2.101-.295l5.392 4.063c.318.239.527.595.583.989s-.048.793-.287 1.111l-10.401 13.802c-.24.318-.596.527-.989.582-.071.011-.141.015-.21.015zm-3.291-5.858 2.996 2.258 8.596-11.406-2.996-2.258z" fill="#3a312a"/><path d="m209.563 170.307c0 14.581-14.044 36.973-26.405 36.973-11.804 0-26.41-22.392-26.41-36.973 0-.773.035-1.537.095-2.29.01-.111.02-.221.035-.331.095-.789.301-1.637.598-2.521 3.049-9.197 12.276-14.938 21.899-13.843 1.341.156 2.728.236 4.149.236 5.987 0 11.362-1.421 15.038-3.672.653 1.08 1.467 2.074 2.421 2.943 5.275 4.827 8.58 11.763 8.58 19.478z" fill="#f7e3c7"/><path d="m183.158 208.78c-12.939 0-27.909-23.282-27.909-38.473 0-.775.032-1.563.1-2.409.018-.191.028-.301.043-.411.104-.849.327-1.797.662-2.8 3.245-9.788 13.123-16.038 23.492-14.857 1.294.15 2.632.226 3.98.226 5.476 0 10.672-1.258 14.255-3.451.341-.208.749-.271 1.138-.178.388.094.723.339.929.681.586.968 1.309 1.846 2.147 2.611 5.765 5.275 9.069 12.778 9.069 20.587 0 15.542-14.7 38.474-27.906 38.474zm-6.128-56.092c-8.138 0-15.556 5.184-18.13 12.948-.273.816-.451 1.564-.532 2.23l-.025.237c-.064.799-.094 1.509-.094 2.205 0 13.479 13.916 35.473 24.909 35.473 11.307 0 24.905-21.788 24.905-35.473 0-6.97-2.949-13.666-8.092-18.372-.69-.629-1.318-1.321-1.877-2.066-3.936 2.036-9.153 3.188-14.569 3.188-1.463 0-2.917-.083-4.322-.246-.728-.083-1.453-.124-2.173-.124z" fill="#3a312a"/><circle cx="173.833" cy="170.007" fill="#3a312a" r="2.578"/><path d="m195.058 170.007c0 1.424-1.154 2.578-2.578 2.578s-2.578-1.154-2.578-2.578 1.154-2.578 2.578-2.578c1.424.001 2.578 1.155 2.578 2.578z" fill="#3a312a"/><path d="m173.121 177.671c0 1.833-1.988 3.32-4.441 3.32-2.452 0-4.44-1.486-4.44-3.32 0-1.833 1.988-3.319 4.44-3.319 2.453-.001 4.441 1.485 4.441 3.319z" fill="#f59689"/><path d="m202.072 177.671c0 1.833-1.988 3.32-4.44 3.32s-4.44-1.486-4.44-3.32c0-1.833 1.988-3.319 4.44-3.319 2.452-.001 4.44 1.485 4.44 3.319z" fill="#f59689"/><path d="m183.155 193.227c-4.035 0-6.946-1.816-8.651-5.397-.356-.748-.038-1.643.71-2 .748-.356 1.643-.038 1.999.71 1.197 2.516 3.086 3.687 5.942 3.687 3.343 0 5.355-2.134 5.893-3.568.291-.776 1.157-1.17 1.931-.878.775.291 1.169 1.156.878 1.931-.995 2.656-4.143 5.515-8.702 5.515z" fill="#3a312a"/><path d="m183.487 138.061c-15.085 0-27.313 11.691-27.313 26.114 0 1.526.276 2.663.789 4.085.242.67 4.153-1.469 4.486-1.704 1.665-1.173 3.026-2.762 4.043-4.519.421-.73.771-1.474 1.054-2.217.9-2.372 3.346-8.973 5.83-8.455 3.331.694 7.106 1.087 11.111 1.087s7.78-.392 11.111-1.087c2.484-.518 4.93 6.083 5.83 8.455.282.744.633 1.487 1.054 2.218 1.68 2.906 4.518 5.673 7.971 6.177.009-.167.219-.224.376-.281 1.13-.41.972-2.853.972-3.759-.001-14.423-12.23-26.114-27.314-26.114z" fill="#87796f"/><path d="m157.173 169.873c-.195 0-.375-.023-.535-.073-.512-.162-.908-.538-1.086-1.032-.526-1.457-.878-2.796-.878-4.593 0-15.226 12.925-27.614 28.812-27.614s28.814 12.387 28.814 27.613l.003.284c.02 1.407.059 3.991-1.788 4.814-.035.036-.072.069-.111.101-.327.268-.751.385-1.168.324-3.459-.504-6.844-3.088-9.053-6.911-.453-.786-.842-1.605-1.157-2.436l-.058-.151c-2.509-6.619-3.774-7.311-4.103-7.365-3.522.74-7.363 1.116-11.379 1.116-4.015 0-7.855-.376-11.416-1.119-.29.057-1.558.749-4.068 7.376l-.054.142c-.315.831-.704 1.65-1.156 2.435-1.18 2.036-2.728 3.763-4.481 4.996-.032.025-3.278 2.093-5.138 2.093zm52.523-1.893.541 1.399c.03-.012.063-.028.098-.047zm-26.21-28.419c-14.233 0-25.812 11.041-25.812 24.614 0 .93.118 1.679.332 2.447.906-.377 2.189-1.04 2.598-1.306 1.381-.972 2.629-2.371 3.591-4.031.37-.643.69-1.316.949-1.998l.054-.141c1.971-5.204 4.238-9.933 7.484-9.251 3.36.7 6.995 1.055 10.805 1.055 3.811 0 7.445-.355 10.806-1.055 3.219-.681 5.51 4.042 7.481 9.241l.057.15c.259.682.579 1.355.951 2.001 1.619 2.801 3.938 4.751 6.299 5.327.019-.008.036-.016.055-.023.128-.307.185-1.008.168-2.089l-.003-.329c-.001-13.571-11.581-24.612-25.815-24.612z" fill="#3a312a"/><path d="m204.758 241.005c-.828 0-1.5-.671-1.5-1.5v-10.835c0-.829.672-1.5 1.5-1.5s1.5.671 1.5 1.5v10.835c0 .828-.672 1.5-1.5 1.5z" fill="#3a312a"/><path d="m162.216 241.005c-.828 0-1.5-.671-1.5-1.5v-10.835c0-.829.672-1.5 1.5-1.5s1.5.671 1.5 1.5v10.835c0 .828-.672 1.5-1.5 1.5z" fill="#3a312a"/><path clip-rule="evenodd" d="m212.445 142.38s-12.756 13.392-28.491 13.392-21.401-5.996-21.401-13.392 5.666-13.392 21.401-13.392 28.491 13.392 28.491 13.392z" fill="#87796f" fill-rule="evenodd"/><path d="m183.953 157.272c-19.926 0-22.901-9.331-22.901-14.892s2.975-14.892 22.901-14.892c16.192 0 29.038 13.291 29.577 13.857.552.58.552 1.49 0 2.069-.539.566-13.385 13.858-29.577 13.858zm0-26.784c-9.079 0-19.901 2.063-19.901 11.892s10.822 11.892 19.901 11.892c12.363 0 23.006-8.824 26.331-11.892-3.325-3.068-13.968-11.892-26.331-11.892z" fill="#3a312a"/><path d="m237.92 134v99.78c0 2.38-1.93 4.31-4.31 4.31h-15.4v-.05c2.1-.28 3.71-2.08 3.71-4.26v-99.78c0-2.38-1.93-4.31-4.31-4.31h16c2.38 0 4.31 1.93 4.31 4.31z" fill="#b8c136"/></g></svg>